<svg version="1.1" id="Layer_1" xmlns="http://www.w3.org/2000/svg" xmlns:xlink="http://www.w3.org/1999/xlink" x="0px" y="0px"
	 width="100%" viewBox="0 0 600 600" enable-background="new 0 0 600 600" xml:space="preserve">
<path fill="#000000" opacity="1.000000" stroke="none" 
	d="
M601.000000,135.000000 
	C601.000000,290.666656 601.000000,445.833344 601.000000,601.000000 
	C401.000000,601.000000 201.000000,601.000000 1.000000,601.000000 
	C1.000000,401.000000 1.000000,201.000000 1.000000,1.000000 
	C201.000000,1.000000 401.000000,1.000000 601.000000,1.000000 
	C601.000000,45.500000 601.000000,90.000000 601.000000,135.000000 
M173.500031,16.110651 
	C133.838501,16.110651 94.176979,16.110060 54.515457,16.110874 
	C31.120644,16.111353 16.110935,31.130281 16.110874,54.540020 
	C16.110451,218.852951 16.110451,383.165894 16.110874,547.478821 
	C16.110935,570.875977 31.132524,585.889160 54.542698,585.889221 
	C218.855637,585.889648 383.168579,585.889648 547.481506,585.889221 
	C570.875610,585.889160 585.889160,570.865234 585.889221,547.455078 
	C585.889648,383.142151 585.889587,218.829224 585.889160,54.516285 
	C585.889099,31.117691 570.870544,16.110954 547.453796,16.110868 
	C423.135895,16.110409 298.817963,16.110651 173.500031,16.110651 
z"/>
<path fill="#E1EBF0" opacity="1.000000" stroke="none" 
	d="
M174.000046,16.110651 
	C298.817963,16.110651 423.135895,16.110409 547.453796,16.110868 
	C570.870544,16.110954 585.889099,31.117691 585.889160,54.516285 
	C585.889587,218.829224 585.889648,383.142151 585.889221,547.455078 
	C585.889160,570.865234 570.875610,585.889160 547.481506,585.889221 
	C383.168579,585.889648 218.855637,585.889648 54.542698,585.889221 
	C31.132524,585.889160 16.110935,570.875977 16.110874,547.478821 
	C16.110451,383.165894 16.110451,218.852951 16.110874,54.540020 
	C16.110935,31.130281 31.120644,16.111353 54.515457,16.110874 
	C94.176979,16.110060 133.838501,16.110651 174.000046,16.110651 
M34.606590,26.956947 
	C25.404728,33.463261 21.635342,42.502285 21.638502,53.598732 
	C21.685501,218.585953 21.656752,383.573181 21.690083,548.560425 
	C21.694002,567.971008 34.153595,580.311951 53.666245,580.314880 
	C218.486816,580.339661 383.307404,580.337585 548.127991,580.317871 
	C567.934937,580.315491 580.313232,568.001648 580.315979,548.266296 
	C580.338867,383.445709 580.334839,218.625122 580.287048,53.804550 
	C580.286072,50.502403 580.072327,47.093304 579.251038,43.916870 
	C575.629272,29.909782 564.068115,21.686729 548.198792,21.680996 
	C481.870575,21.657034 415.542389,21.670837 349.214172,21.670830 
	C251.055099,21.670816 152.896027,21.683825 54.736954,21.643248 
	C47.770481,21.640368 41.120224,22.515699 34.606590,26.956947 
z"/>
<path fill="#0082BF" opacity="1.000000" stroke="none" 
	d="
M34.904709,26.740555 
	C41.120224,22.515699 47.770481,21.640368 54.736954,21.643248 
	C152.896027,21.683825 251.055099,21.670816 349.214172,21.670830 
	C415.542389,21.670837 481.870575,21.657034 548.198792,21.680996 
	C564.068115,21.686729 575.629272,29.909782 579.251038,43.916870 
	C580.072327,47.093304 580.286072,50.502403 580.287048,53.804550 
	C580.334839,218.625122 580.338867,383.445709 580.315979,548.266296 
	C580.313232,568.001648 567.934937,580.315491 548.127991,580.317871 
	C383.307404,580.337585 218.486816,580.339661 53.666245,580.314880 
	C34.153595,580.311951 21.694002,567.971008 21.690083,548.560425 
	C21.656752,383.573181 21.685501,218.585953 21.638502,53.598732 
	C21.635342,42.502285 25.404728,33.463261 34.904709,26.740555 
M207.500504,128.998260 
	C201.390869,128.998260 195.281235,128.998260 189.087311,128.998260 
	C189.087311,239.275101 189.087311,348.974609 189.087311,458.911682 
	C209.238739,458.911682 229.136139,458.911682 249.536819,458.911682 
	C249.536819,411.265289 249.536819,363.870178 249.536819,316.001709 
	C251.831314,316.001709 253.626984,316.001709 255.422653,316.001709 
	C280.244293,316.001678 305.066315,316.086914 329.887512,315.981201 
	C365.334076,315.830231 397.652161,293.730499 408.307556,261.467651 
	C415.467682,239.787949 415.065674,217.252213 410.122437,195.341339 
	C401.213409,155.851822 366.368988,129.043655 325.945129,129.006134 
	C286.796906,128.969803 247.648636,128.998260 207.500504,128.998260 
z"/>
<path fill="#FEFEFF" opacity="1.000000" stroke="none" 
	d="
M208.000458,128.998260 
	C247.648636,128.998260 286.796906,128.969803 325.945129,129.006134 
	C366.368988,129.043655 401.213409,155.851822 410.122437,195.341339 
	C415.065674,217.252213 415.467682,239.787949 408.307556,261.467651 
	C397.652161,293.730499 365.334076,315.830231 329.887512,315.981201 
	C305.066315,316.086914 280.244293,316.001678 255.422653,316.001709 
	C253.626984,316.001709 251.831314,316.001709 249.536819,316.001709 
	C249.536819,363.870178 249.536819,411.265289 249.536819,458.911682 
	C229.136139,458.911682 209.238739,458.911682 189.087311,458.911682 
	C189.087311,348.974609 189.087311,239.275101 189.087311,128.998260 
	C195.281235,128.998260 201.390869,128.998260 208.000458,128.998260 
M285.500031,184.162750 
	C273.718384,184.162750 261.936737,184.162750 249.849609,184.162750 
	C249.849609,209.884659 249.849609,235.086960 249.849609,260.287750 
	C250.560837,260.506683 251.023666,260.773285 251.486862,260.773926 
	C274.462219,260.805695 297.447144,261.226654 320.409973,260.694916 
	C338.606750,260.273560 351.958862,245.634293 351.999756,227.449722 
	C352.007996,223.786911 352.027924,220.123840 351.996124,216.461288 
	C351.856079,200.324799 340.515503,186.514679 324.399414,184.900223 
	C311.867432,183.644821 299.140411,184.336487 285.500031,184.162750 
z"/>
<path fill="#0283BF" opacity="1.000000" stroke="none" 
	d="
M286.000061,184.162781 
	C299.140411,184.336487 311.867432,183.644821 324.399414,184.900223 
	C340.515503,186.514679 351.856079,200.324799 351.996124,216.461288 
	C352.027924,220.123840 352.007996,223.786911 351.999756,227.449722 
	C351.958862,245.634293 338.606750,260.273560 320.409973,260.694916 
	C297.447144,261.226654 274.462219,260.805695 251.486862,260.773926 
	C251.023666,260.773285 250.560837,260.506683 249.849609,260.287750 
	C249.849609,235.086960 249.849609,209.884659 249.849609,184.162750 
	C261.936737,184.162750 273.718384,184.162750 286.000061,184.162781 
z"/>
</svg>