<?xml version="1.0" encoding="UTF-8"?>
<svg version="1.1" xmlns="http://www.w3.org/2000/svg" width="88" height="82">
<path d="M0 0 C7.40141002 -0.10173363 14.80263853 -0.1716057 22.20458984 -0.21972656 C24.72060891 -0.23979516 27.23658161 -0.2670563 29.75244141 -0.30175781 C33.37674428 -0.35048312 37.00042841 -0.37301722 40.625 -0.390625 C41.74302002 -0.41127014 42.86104004 -0.43191528 44.01293945 -0.45318604 C50.43596701 -0.45501589 55.7470476 0.01821068 61 4 C72.60071097 19.56937525 68.11610238 47.86222885 68 66 C72.95 66 77.9 66 83 66 C83 71.28 83 76.56 83 82 C77.72 82 72.44 82 67 82 C67 77.05 67 72.1 67 67 C65.49695313 67.01571045 63.99390625 67.0314209 62.4453125 67.04760742 C56.84689737 67.10207674 51.24850549 67.13641212 45.64990234 67.16479492 C43.2309169 67.17984279 40.81195857 67.20028588 38.39306641 67.22631836 C34.90780937 67.262877 31.4229144 67.2797669 27.9375 67.29296875 C26.86322754 67.30845261 25.78895508 67.32393646 24.68212891 67.33988953 C17.49243652 67.34148601 11.6638203 66.6735986 5.6875 62.3125 C-0.12276876 54.35027985 -0.14778801 44.82397044 -0.09765625 35.3515625 C-0.0962413 34.33903412 -0.09482635 33.32650574 -0.09336853 32.28329468 C-0.08779143 29.06383249 -0.07524312 25.84444101 -0.0625 22.625 C-0.05748204 20.43619892 -0.05291965 18.24739675 -0.04882812 16.05859375 C-0.0378295 10.70570523 -0.0211142 5.35285767 0 0 Z " fill="#60B946" transform="translate(0,0)"/>
<path d="M0 0 C5.28 0 10.56 0 16 0 C16 5.28 16 10.56 16 16 C10.72 16 5.44 16 0 16 C0 10.72 0 5.44 0 0 Z " fill="#EB1C22" transform="translate(67,66)"/>
</svg>
