<?xml version="1.0" standalone="no"?>
<!DOCTYPE svg PUBLIC "-//W3C//DTD SVG 20010904//EN"
 "http://www.w3.org/TR/2001/REC-SVG-20010904/DTD/svg10.dtd">
<svg version="1.0" xmlns="http://www.w3.org/2000/svg"
 width="107.000000pt" height="100.000000pt" viewBox="0 0 107.000000 100.000000"
 preserveAspectRatio="xMidYMid meet">

<g transform="translate(0.000000,100.000000) scale(0.100000,-0.100000)"
fill="#000000" stroke="none">
<path d="M630 840 c-140 -60 -261 -110 -268 -110 -7 0 -39 17 -70 39 -31 21
-76 48 -99 60 -44 22 -103 28 -103 11 0 -22 76 -92 146 -136 l74 -46 0 -288 0
-289 27 -21 c20 -16 28 -18 34 -8 3 7 28 120 54 251 27 130 52 237 56 237 14
0 244 -141 252 -155 4 -8 10 -57 14 -110 4 -62 11 -99 20 -107 18 -15 27 -4
48 62 29 89 43 111 118 181 68 63 71 66 50 77 -17 10 -38 6 -117 -23 l-96 -35
-83 63 c-45 34 -99 73 -120 87 -20 14 -35 29 -34 34 2 6 82 64 179 130 96 67
190 133 209 148 33 27 33 28 15 43 -11 8 -27 15 -35 15 -9 0 -131 -50 -271
-110z"/>
</g>
</svg>
